<?xml version="1.0" standalone="no"?>
<!DOCTYPE svg PUBLIC "-//W3C//DTD SVG 20010904//EN"
 "http://www.w3.org/TR/2001/REC-SVG-20010904/DTD/svg10.dtd">
<svg version="1.0" xmlns="http://www.w3.org/2000/svg"
 width="700.000000pt" height="700.000000pt" viewBox="0 0 700.000000 700.000000"
 preserveAspectRatio="xMidYMid meet">
<metadata>
Created by potrace 1.14, written by Peter Selinger 2001-2017
</metadata>
<g transform="translate(0.000000,700.000000) scale(0.100000,-0.100000)"
fill="#000000" stroke="none">
<path d="M3165 6989 c-302 -20 -658 -81 -933 -159 -517 -146 -924 -371 -1232
-680 -127 -126 -204 -225 -281 -355 -279 -474 -303 -1165 -58 -1634 128 -245
372 -501 635 -667 113 -70 364 -197 519 -262 331 -138 807 -267 1315 -357 673
-118 1107 -225 1309 -323 126 -61 221 -163 260 -280 26 -77 28 -212 5 -287
-68 -214 -345 -374 -765 -440 -141 -23 -493 -31 -656 -16 -621 58 -933 288
-933 688 l0 93 -976 0 -977 0 7 -152 c12 -264 48 -452 125 -648 144 -370 462
-724 863 -961 475 -282 1021 -447 1688 -510 173 -17 684 -17 860 0 641 60
1148 197 1600 433 239 125 377 224 546 392 243 243 394 499 470 799 44 173 57
295 57 517 -1 280 -32 457 -118 666 -119 288 -392 587 -710 779 -197 119 -556
276 -801 350 -259 79 -703 180 -1079 245 -738 128 -1082 227 -1291 371 -88 61
-132 112 -171 195 -25 53 -28 70 -27 164 0 84 4 116 22 161 81 205 381 347
841 400 146 16 437 6 561 -20 268 -55 462 -152 601 -298 100 -104 149 -233
149 -391 l0 -82 963 2 962 3 -3 135 c-10 429 -136 781 -393 1095 -77 94 -275
286 -379 367 -637 493 -1564 733 -2575 667z"/>
</g>
</svg>
